<svg id="Layer_1" data-name="Layer 1" xmlns="http://www.w3.org/2000/svg" xmlns:xlink="http://www.w3.org/1999/xlink" viewBox="0 0 120.02 123.92"><defs><style>.cls-1{isolation:isolate;}.cls-2{clip-path:url(#clip-path);}.cls-3{clip-path:url(#clip-path-2);}.cls-4{clip-path:url(#clip-path-3);}.cls-5{clip-path:url(#clip-path-4);}.cls-6{clip-path:url(#clip-path-5);}.cls-7{fill:#4bff8c;}</style><clipPath id="clip-path"><path d="M5.11,6.21,28.5.19A6.16,6.16,0,0,1,30.57,0L7.18,6A6.16,6.16,0,0,0,5.11,6.21Z"/></clipPath><clipPath id="clip-path-2"><path d="M114.92,117.71l-23.39,6c3-.76,5.11-3.72,5.1-7.44l23.39-6C120,114,117.87,117,114.92,117.71Z"/></clipPath><clipPath id="clip-path-3"><path d="M89.43,91l23.39-6a7.44,7.44,0,0,1,5.08,2.85,9.6,9.6,0,0,1,2.11,6l-23.39,6a9.52,9.52,0,0,0-2.11-6A7.45,7.45,0,0,0,89.43,91Z"/></clipPath><clipPath id="clip-path-4"><path d="M96.58,38.55l23.39-6a8.17,8.17,0,0,1-2.42,6.07l-23.39,6A8.17,8.17,0,0,0,96.58,38.55Z"/></clipPath><clipPath id="clip-path-5"><path d="M89.38,13.23l23.39-6c4,.34,7.19,4.31,7.19,8.86l-23.39,6C96.57,17.55,93.35,13.58,89.38,13.23Z"/></clipPath></defs><title>zeb logo</title><g class="cls-1"><polygon points="7.26 92.01 30.64 86 30.63 102.46 7.25 108.47 7.26 92.01"/><polygon points="7.25 108.47 30.63 102.46 36.09 102.94 12.71 108.95 7.25 108.47"/><polygon points="7.18 14.27 30.57 8.26 30.58 24.72 7.19 30.73 7.18 14.27"/><g class="cls-1"><path d="M5.11,6.21,28.5.19A6.16,6.16,0,0,1,30.57,0L7.18,6A6.16,6.16,0,0,0,5.11,6.21Z"/><g class="cls-2"><g class="cls-1"><path d="M5.11,6.21,28.5.19,29,.09l-23.39,6a3.56,3.56,0,0,0-.47.1"/><path d="M5.58,6.11,29,.09A4.86,4.86,0,0,1,29.52,0L6.13,6a3.45,3.45,0,0,0-.55.07"/><path d="M6.13,6,29.52,0,30,0,6.62,6a4,4,0,0,0-.49,0"/><path d="M6.62,6,30,0l.45,0L7.07,6H6.62"/><path d="M7.07,6,30.46,0h.11L7.18,6H7.07"/></g></g></g><polygon points="7.19 30.73 30.58 24.72 91.19 30.02 67.8 36.04 7.19 30.73"/><polygon points="67.8 36.04 91.19 30.02 30.64 86 7.26 92.01 67.8 36.04"/><polygon points="12.71 108.95 36.09 102.94 112.84 109.65 89.45 115.67 12.71 108.95"/><polygon points="28.97 93.91 52.36 87.9 112.83 93.19 89.44 99.2 28.97 93.91"/><polygon points="89.44 99.2 112.83 93.19 112.84 109.65 89.45 115.67 89.44 99.2"/><polygon points="89.4 37.92 112.79 31.91 52.36 87.9 28.97 93.91 89.4 37.92"/><polygon points="47.95 87.34 71.34 81.33 112.82 84.96 89.44 90.97 47.95 87.34"/><g class="cls-1"><path d="M114.92,117.71l-23.39,6c3-.76,5.11-3.72,5.1-7.44l23.39-6C120,114,117.87,117,114.92,117.71Z"/><g class="cls-3"><g class="cls-1"><path d="M96.63,116.29l23.39-6v.37l-23.39,6v-.38"/><path d="M96.63,116.67l23.39-6,0,.46-23.39,6,0-.46"/><path d="M96.6,117.13l23.39-6c0,.15,0,.29,0,.44l-23.39,6c0-.14,0-.29,0-.43"/><path d="M96.55,117.56l23.39-6c0,.14,0,.28-.07.42l-23.39,6c0-.14,0-.28.07-.42"/><path d="M96.48,118l23.39-6-.09.41-23.39,6a2.71,2.71,0,0,0,.09-.41"/><path d="M96.39,118.39l23.39-6c0,.14-.06.27-.1.4l-23.39,6c0-.13.07-.27.1-.41"/><path d="M96.29,118.8l23.39-6c0,.14-.09.28-.13.41l-23.39,6c0-.13.09-.26.13-.4"/><path d="M96.16,119.2l23.39-6-.15.4-23.39,6,.15-.41"/><path d="M96,119.61l23.39-6-.18.41-23.39,6,.18-.41"/><path d="M95.83,120l23.39-6c-.07.15-.15.29-.22.43l-23.39,6c.08-.14.15-.28.22-.43"/><path d="M95.61,120.45l23.39-6-.27.45-23.39,6,.27-.45"/><path d="M95.34,120.9l23.39-6c-.11.17-.22.33-.34.49l-23.39,6a5.85,5.85,0,0,0,.34-.48"/><path d="M95,121.38l23.39-6a6.3,6.3,0,0,1-.48.55l-23.39,6a5.23,5.23,0,0,0,.48-.56"/><path d="M94.52,121.94l23.39-6a6.16,6.16,0,0,1-3,1.79l-23.39,6a6.24,6.24,0,0,0,3-1.79"/></g></g></g><polygon points="96.62 99.83 120.01 93.82 120.02 110.28 96.63 116.29 96.62 99.83"/><g class="cls-1"><path d="M89.43,91l23.39-6a7.44,7.44,0,0,1,5.08,2.85,9.6,9.6,0,0,1,2.11,6l-23.39,6a9.52,9.52,0,0,0-2.11-6A7.45,7.45,0,0,0,89.43,91Z"/><g class="cls-4"><g class="cls-1"><path d="M89.43,91l23.39-6,.32,0L89.75,91l-.32,0"/><path d="M89.75,91l23.39-6,.4.07-23.39,6-.4-.07"/><path d="M90.15,91.08l23.39-6,.38.09-23.39,6a2.34,2.34,0,0,0-.38-.09"/><path d="M90.53,91.17l23.39-6,.37.11-23.38,6-.38-.11"/><path d="M90.91,91.28l23.38-6,.37.13-23.39,6-.36-.13"/><path d="M91.27,91.41l23.39-6,.37.16-23.39,6-.37-.15"/><path d="M91.64,91.56l23.39-6,.36.17L92,91.74l-.36-.18"/><path d="M92,91.74l23.39-6,.37.21L92.37,92c-.12-.08-.24-.14-.37-.21"/><path d="M92.37,92l23.39-6,.37.24-23.39,6a2.92,2.92,0,0,0-.37-.24"/><path d="M92.74,92.19l23.39-6,.39.28-23.39,6-.39-.28"/><path d="M93.13,92.47l23.39-6c.14.11.28.22.41.34l-23.39,6c-.13-.12-.27-.23-.41-.34"/><path d="M93.54,92.81l23.39-6,.45.43L94,93.24c-.15-.15-.3-.3-.45-.43"/><path d="M94,93.24l23.39-6c.18.19.35.38.52.59h0l-23.39,6h0a5.92,5.92,0,0,0-.52-.59"/><path d="M94.52,93.84l23.39-6a9.14,9.14,0,0,1,.9,1.33l-23.39,6a8.63,8.63,0,0,0-.9-1.33"/><path d="M95.42,95.17l23.39-6c.09.16.17.33.25.5l-23.38,6c-.08-.17-.17-.34-.26-.5"/><path d="M95.68,95.67l23.38-6a9.69,9.69,0,0,1,.59,1.55l-23.39,6a9.89,9.89,0,0,0-.58-1.55"/><path d="M96.26,97.22l23.39-6c.07.26.14.53.19.79L96.45,98c0-.27-.12-.53-.19-.79"/><path d="M96.45,98l23.39-6c0,.22.07.43.1.64l-23.39,6c0-.21-.06-.43-.1-.64"/><path d="M96.55,98.65l23.39-6c0,.19,0,.38,0,.57l-23.39,6c0-.18,0-.37,0-.56"/><path d="M96.6,99.21l23.39-6c0,.17,0,.34,0,.51l-23.39,6c0-.17,0-.35,0-.52"/><path d="M96.62,99.73l23.39-6v.11l-23.39,6v-.1"/></g></g></g><polygon points="7.18 14.27 30.57 8.26 107.45 14.98 84.06 21 7.18 14.27"/><polygon points="7.18 6.04 30.57 0.02 107.44 6.75 84.05 12.77 7.18 6.04"/><polygon points="84.06 21 107.45 14.98 110.03 15.21 86.64 21.22 84.06 21"/><polygon points="94.16 44.62 117.55 38.6 71.34 81.33 47.95 87.34 94.16 44.62"/><polygon points="89.39 25.04 112.78 19.02 112.79 31.91 89.4 37.92 89.39 25.04"/><polygon points="84.05 12.77 107.44 6.75 110.02 6.98 86.63 12.99 84.05 12.77"/><polygon points="86.64 21.22 110.03 15.21 112.78 15.45 89.39 21.46 86.64 21.22"/><polygon points="89.39 21.46 112.78 15.45 112.78 19.02 89.39 25.04 89.39 21.46"/><polygon points="86.63 12.99 110.02 6.98 112.77 7.22 89.38 13.23 86.63 12.99"/><g class="cls-1"><path d="M96.58,38.55l23.39-6a8.17,8.17,0,0,1-2.42,6.07l-23.39,6A8.17,8.17,0,0,0,96.58,38.55Z"/><g class="cls-5"><g class="cls-1"><path d="M96.58,38.55l23.39-6c0,.13,0,.27,0,.4L96.57,39c0-.13,0-.27,0-.41"/><path d="M96.57,39l23.39-6a3.91,3.91,0,0,1,0,.49l-23.39,6a3.87,3.87,0,0,0,0-.48"/><path d="M96.54,39.44l23.39-6c0,.15,0,.31-.05.46l-23.39,6c0-.15,0-.3.05-.46"/><path d="M96.49,39.9l23.39-6c0,.15,0,.29-.07.44l-23.39,6c0-.14,0-.29.07-.44"/><path d="M96.42,40.34l23.39-6-.09.42-23.39,6,.09-.43"/><path d="M96.33,40.77l23.39-6c0,.14-.07.28-.11.42l-23.39,6c0-.14.08-.28.11-.42"/><path d="M96.22,41.19l23.39-6c0,.14-.08.27-.13.41l-23.39,6c0-.14.09-.28.13-.41"/><path d="M96.09,41.6l23.39-6-.15.41L95.94,42l.15-.4"/><path d="M95.94,42l23.39-6-.18.41-23.39,6,.18-.42"/><path d="M95.76,42.42l23.39-6a4.13,4.13,0,0,1-.22.42l-23.39,6c.08-.14.15-.28.22-.42"/><path d="M95.54,42.84l23.39-6c-.08.15-.17.3-.26.45l-23.39,6c.09-.14.18-.29.26-.44"/><path d="M95.28,43.28l23.39-6c-.11.16-.22.32-.34.47l-23.39,6a5.85,5.85,0,0,0,.34-.48"/><path d="M94.94,43.76l23.39-6c-.15.2-.31.38-.47.56l-23.39,6c.16-.18.32-.37.47-.56"/><path d="M94.47,44.32l23.39-6c-.1.11-.21.21-.31.31l-23.39,6,.31-.3"/></g></g></g><polygon points="96.57 25.66 119.96 19.65 119.97 32.54 96.58 38.55 96.57 25.66"/><polygon points="96.57 22.09 119.96 16.08 119.96 19.65 96.57 25.66 96.57 22.09"/><g class="cls-1"><path d="M89.38,13.23l23.39-6c4,.34,7.19,4.31,7.19,8.86l-23.39,6C96.57,17.55,93.35,13.58,89.38,13.23Z"/><g class="cls-6"><g class="cls-1"><path d="M89.38,13.23l23.39-6,.32,0-23.39,6-.32,0"/><path d="M89.7,13.27l23.39-6,.4.07-23.39,6-.4-.07"/><path d="M90.1,13.34l23.39-6,.39.09-23.39,6a2.74,2.74,0,0,0-.39-.09"/><path d="M90.49,13.43l23.39-6,.37.11-23.39,6-.37-.11"/><path d="M90.86,13.54l23.39-6,.36.13-23.38,6-.37-.13"/><path d="M91.23,13.67l23.38-6,.37.15-23.39,6-.36-.15"/><path d="M91.59,13.82,115,7.8l.36.18L92,14l-.36-.18"/><path d="M92,14l23.39-6,.36.21-23.38,6A3.47,3.47,0,0,0,92,14"/><path d="M92.32,14.21l23.38-6a2.92,2.92,0,0,1,.37.24l-23.38,6-.37-.23"/><path d="M92.69,14.44l23.38-6,.4.28-23.39,6-.39-.29"/><path d="M93.08,14.73l23.39-6,.41.34-23.39,6c-.13-.12-.27-.23-.41-.34"/><path d="M93.49,15.07l23.39-6,.45.43-23.39,6-.45-.43"/><path d="M93.94,15.5l23.39-6c.18.19.35.38.52.59l-23.39,6c-.17-.2-.34-.4-.52-.58"/><path d="M94.46,16.08l23.39-6a9.74,9.74,0,0,1,1,1.46l-23.39,6a9.35,9.35,0,0,0-1-1.47"/><path d="M95.43,17.55l23.39-6,.13.26-23.39,6c0-.08-.08-.17-.13-.25"/><path d="M95.56,17.8l23.39-6a9.43,9.43,0,0,1,.65,1.68l-23.39,6a9,9,0,0,0-.65-1.68"/><path d="M96.21,19.48l23.39-6q.11.38.18.78l-23.39,6q-.08-.39-.18-.78"/><path d="M96.39,20.26l23.39-6c0,.21.08.42.11.64l-23.39,6c0-.21-.06-.43-.11-.64"/><path d="M96.5,20.9l23.39-6c0,.18,0,.37,0,.56l-23.39,6c0-.19,0-.38,0-.57"/><path d="M96.55,21.47l23.39-6c0,.17,0,.34,0,.52L96.57,22c0-.17,0-.34,0-.51"/><path d="M96.57,22,120,16v.11l-23.39,6V22"/></g></g></g><path d="M96.62,99.83a9.52,9.52,0,0,0-2.11-6A7.45,7.45,0,0,0,89.43,91L48,87.34,94.16,44.62a8.17,8.17,0,0,0,2.42-6.07V22.09c0-4.54-3.22-8.51-7.19-8.86L86.63,13l-2.58-.22L7.18,6C3.21,5.69,0,9.1,0,13.64V30.1C0,34.66,3.23,38.62,7.2,39L48.81,42.6,2.71,85.23A8,8,0,0,0,.05,91.38v16.47c0,4.54,3.23,8.51,7.19,8.85l5.46.48,76.75,6.72c4,.34,7.18-3.06,7.17-7.61Zm0,0a9.52,9.52,0,0,0-2.11-6A7.45,7.45,0,0,0,89.43,91L48,87.34,94.16,44.62a8.17,8.17,0,0,0,2.42-6.07V22.09c0-4.54-3.22-8.51-7.19-8.86L86.63,13l-2.58-.22L7.18,6C3.21,5.69,0,9.1,0,13.64V30.1C0,34.66,3.23,38.62,7.2,39L48.81,42.6,2.71,85.23A8,8,0,0,0,.05,91.38v16.47c0,4.54,3.23,8.51,7.19,8.85l5.46.48,76.75,6.72c4,.34,7.18-3.06,7.17-7.61ZM12.7,109l-5.45-.48V92L67.8,36,7.19,30.73V14.27L84.06,21l2.58.22,2.75.24V38L29,93.91,89.44,99.2v16.47Z"/><path class="cls-7" d="M86.64,21.22a3,3,0,0,1,2.75,3V36.61a3,3,0,0,1-1,2.21L34,89.29a3,3,0,0,0,1.79,5.22L86.69,99a3,3,0,0,1,2.75,3v10.4a3,3,0,0,1-3.28,3L12.7,109l-2.7-.24a3,3,0,0,1-2.76-3V93.35a3,3,0,0,1,1-2.22L62.8,40.66A3,3,0,0,0,61,35.44L9.94,31a3,3,0,0,1-2.75-3V17.56a3,3,0,0,1,3.28-3L84.06,21l2.58.22Z"/></g></svg>